<svg width="24" height="24" viewBox="0 0 24 24" fill="none" xmlns="http://www.w3.org/2000/svg">
<path fill-rule="evenodd" clip-rule="evenodd" d="M15.9099 17.5962C16.4957 18.182 17.4454 18.182 18.0312 17.5962C18.617 17.0104 18.617 16.0607 18.0312 15.4749L14.5563 12L18.0312 8.52513C18.617 7.93934 18.617 6.98959 18.0312 6.40381C17.4454 5.81802 16.4957 5.81802 15.9099 6.40381L12.435 9.87868L8.83883 6.28249C8.25305 5.6967 7.3033 5.6967 6.71751 6.28249C6.13173 6.86827 6.13173 7.81802 6.71751 8.40381L10.3137 12L6.71751 15.5962C6.13173 16.182 6.13173 17.1317 6.71751 17.7175C7.3033 18.3033 8.25305 18.3033 8.83883 17.7175L12.435 14.1213L15.9099 17.5962Z" fill="#EB5757"/>
</svg>
