<svg width="24" height="24" viewBox="0 0 24 24" fill="none" xmlns="http://www.w3.org/2000/svg">
<path d="M12 21C16.9706 21 21 16.9706 21 12C21 7.02944 16.9706 3 12 3C7.02944 3 3 7.02944 3 12C3 16.9706 7.02944 21 12 21Z" stroke="#828282" stroke-width="2" stroke-linecap="round" stroke-linejoin="round"/>
<path d="M9.38086 9.3C9.59245 8.6985 10.0101 8.1913 10.5598 7.86822C11.1095 7.54514 11.7559 7.42704 12.3843 7.53484C13.0128 7.64264 13.5828 7.96937 13.9934 8.45718C14.4041 8.94498 14.6288 9.56237 14.6279 10.2C14.6279 12 11.9279 12.9 11.9279 12.9" stroke="#828282" stroke-width="2" stroke-linecap="round" stroke-linejoin="round"/>
<circle cx="12.0006" cy="16.5" r="0.5" fill="#828282" stroke="#828282" stroke-width="0.8"/>
</svg>
