<svg width="39" height="39" viewBox="0 0 39 39" fill="none" xmlns="http://www.w3.org/2000/svg">
<path fill-rule="evenodd" clip-rule="evenodd" d="M23.4798 1.5C23.4798 0.671573 24.1514 0 24.9798 0H36.7196H36.7197C36.9425 0 37.1539 0.0485813 37.344 0.135729C37.4591 0.188373 37.5689 0.256332 37.6702 0.339603C37.754 0.408315 37.8302 0.485922 37.8974 0.570981C37.9572 0.646581 38.0087 0.726608 38.0518 0.809829C38.1591 1.01643 38.2197 1.25114 38.2197 1.5V13.2398C38.2197 14.0683 37.5481 14.7398 36.7197 14.7398C35.8912 14.7398 35.2197 14.0683 35.2197 13.2398V5.12122L16.2572 24.0837C15.6714 24.6695 14.7217 24.6695 14.1359 24.0837C13.5501 23.4979 13.5501 22.5482 14.1359 21.9624L33.0982 3H24.9798C24.1514 3 23.4798 2.32843 23.4798 1.5ZM5.41328 8.86993C4.77324 8.86993 4.15941 9.12418 3.70683 9.57676C3.25426 10.0293 3 10.6432 3 11.2832V32.8062C3 33.4463 3.25426 34.0601 3.70683 34.5127C4.15941 34.9653 4.77324 35.2195 5.41328 35.2195H26.9363C27.5763 35.2195 28.1902 34.9653 28.6427 34.5127C29.0953 34.0601 29.3496 33.4463 29.3496 32.8062V21.0664C29.3496 20.238 30.0212 19.5664 30.8496 19.5664C31.678 19.5664 32.3496 20.238 32.3496 21.0664V32.8062C32.3496 34.2419 31.7793 35.6188 30.7641 36.634C29.7489 37.6492 28.372 38.2195 26.9363 38.2195H5.41328C3.97759 38.2195 2.6007 37.6492 1.58551 36.634C0.570326 35.6188 0 34.2419 0 32.8062V11.2832C0 9.84752 0.570325 8.47063 1.58551 7.45544C2.6007 6.44025 3.97759 5.86993 5.41328 5.86993H17.1531C17.9815 5.86993 18.6531 6.5415 18.6531 7.36993C18.6531 8.19835 17.9815 8.86993 17.1531 8.86993H5.41328Z" fill="#EB5757"/>
</svg>
