<svg width="40" height="40" viewBox="0 0 40 40" fill="none" xmlns="http://www.w3.org/2000/svg">
<mask id="path-2-inside-1" fill="white">
<path fill-rule="evenodd" clip-rule="evenodd" d="M3.84211 7.68421C4.85947 7.68421 5.68421 6.85947 5.68421 5.84211C5.68421 4.82474 4.85947 4 3.84211 4C2.82474 4 2 4.82474 2 5.84211C2 6.85947 2.82474 7.68421 3.84211 7.68421ZM13.0527 4.3421C12.2243 4.3421 11.5527 5.01367 11.5527 5.8421C11.5527 6.67053 12.2243 7.3421 13.0527 7.3421H37.0001C37.8285 7.3421 38.5001 6.67053 38.5001 5.8421C38.5001 5.01367 37.8285 4.3421 37.0001 4.3421H13.0527ZM13.0527 15.3947C12.2243 15.3947 11.5527 16.0663 11.5527 16.8947C11.5527 17.7231 12.2243 18.3947 13.0527 18.3947H37.0001C37.8285 18.3947 38.5001 17.7231 38.5001 16.8947C38.5001 16.0663 37.8285 15.3947 37.0001 15.3947H13.0527ZM11.5527 27.9474C11.5527 27.119 12.2243 26.4474 13.0527 26.4474H37.0001C37.8285 26.4474 38.5001 27.119 38.5001 27.9474C38.5001 28.7758 37.8285 29.4474 37.0001 29.4474H13.0527C12.2243 29.4474 11.5527 28.7758 11.5527 27.9474ZM5.68421 16.8947C5.68421 17.9121 4.85947 18.7368 3.84211 18.7368C2.82474 18.7368 2 17.9121 2 16.8947C2 15.8774 2.82474 15.0526 3.84211 15.0526C4.85947 15.0526 5.68421 15.8774 5.68421 16.8947ZM3.84211 29.7895C4.85947 29.7895 5.68421 28.9648 5.68421 27.9474C5.68421 26.93 4.85947 26.1053 3.84211 26.1053C2.82474 26.1053 2 26.93 2 27.9474C2 28.9648 2.82474 29.7895 3.84211 29.7895Z"/>
</mask>
<path fill-rule="evenodd" clip-rule="evenodd" d="M3.84211 7.68421C4.85947 7.68421 5.68421 6.85947 5.68421 5.84211C5.68421 4.82474 4.85947 4 3.84211 4C2.82474 4 2 4.82474 2 5.84211C2 6.85947 2.82474 7.68421 3.84211 7.68421ZM13.0527 4.3421C12.2243 4.3421 11.5527 5.01367 11.5527 5.8421C11.5527 6.67053 12.2243 7.3421 13.0527 7.3421H37.0001C37.8285 7.3421 38.5001 6.67053 38.5001 5.8421C38.5001 5.01367 37.8285 4.3421 37.0001 4.3421H13.0527ZM13.0527 15.3947C12.2243 15.3947 11.5527 16.0663 11.5527 16.8947C11.5527 17.7231 12.2243 18.3947 13.0527 18.3947H37.0001C37.8285 18.3947 38.5001 17.7231 38.5001 16.8947C38.5001 16.0663 37.8285 15.3947 37.0001 15.3947H13.0527ZM11.5527 27.9474C11.5527 27.119 12.2243 26.4474 13.0527 26.4474H37.0001C37.8285 26.4474 38.5001 27.119 38.5001 27.9474C38.5001 28.7758 37.8285 29.4474 37.0001 29.4474H13.0527C12.2243 29.4474 11.5527 28.7758 11.5527 27.9474ZM5.68421 16.8947C5.68421 17.9121 4.85947 18.7368 3.84211 18.7368C2.82474 18.7368 2 17.9121 2 16.8947C2 15.8774 2.82474 15.0526 3.84211 15.0526C4.85947 15.0526 5.68421 15.8774 5.68421 16.8947ZM3.84211 29.7895C4.85947 29.7895 5.68421 28.9648 5.68421 27.9474C5.68421 26.93 4.85947 26.1053 3.84211 26.1053C2.82474 26.1053 2 26.93 2 27.9474C2 28.9648 2.82474 29.7895 3.84211 29.7895Z" fill="#EB5757"/>
<path d="M4.68421 5.84211C4.68421 6.30719 4.30719 6.68421 3.84211 6.68421V8.68421C5.41176 8.68421 6.68421 7.41176 6.68421 5.84211H4.68421ZM3.84211 5C4.30719 5 4.68421 5.37702 4.68421 5.84211H6.68421C6.68421 4.27245 5.41176 3 3.84211 3V5ZM3 5.84211C3 5.37702 3.37702 5 3.84211 5V3C2.27245 3 1 4.27245 1 5.84211H3ZM3.84211 6.68421C3.37702 6.68421 3 6.30719 3 5.84211H1C1 7.41176 2.27245 8.68421 3.84211 8.68421V6.68421ZM12.5527 5.8421C12.5527 5.56596 12.7766 5.3421 13.0527 5.3421V3.3421C11.672 3.3421 10.5527 4.46139 10.5527 5.8421H12.5527ZM13.0527 6.3421C12.7766 6.3421 12.5527 6.11824 12.5527 5.8421H10.5527C10.5527 7.22281 11.672 8.3421 13.0527 8.3421V6.3421ZM37.0001 6.3421H13.0527V8.3421H37.0001V6.3421ZM37.5001 5.8421C37.5001 6.11824 37.2762 6.3421 37.0001 6.3421V8.3421C38.3808 8.3421 39.5001 7.22281 39.5001 5.8421H37.5001ZM37.0001 5.3421C37.2762 5.3421 37.5001 5.56596 37.5001 5.8421H39.5001C39.5001 4.46139 38.3808 3.3421 37.0001 3.3421V5.3421ZM13.0527 5.3421H37.0001V3.3421H13.0527V5.3421ZM12.5527 16.8947C12.5527 16.6186 12.7766 16.3947 13.0527 16.3947V14.3947C11.672 14.3947 10.5527 15.514 10.5527 16.8947H12.5527ZM13.0527 17.3947C12.7766 17.3947 12.5527 17.1709 12.5527 16.8947H10.5527C10.5527 18.2754 11.672 19.3947 13.0527 19.3947V17.3947ZM37.0001 17.3947H13.0527V19.3947H37.0001V17.3947ZM37.5001 16.8947C37.5001 17.1709 37.2762 17.3947 37.0001 17.3947V19.3947C38.3808 19.3947 39.5001 18.2754 39.5001 16.8947H37.5001ZM37.0001 16.3947C37.2762 16.3947 37.5001 16.6186 37.5001 16.8947H39.5001C39.5001 15.514 38.3808 14.3947 37.0001 14.3947V16.3947ZM13.0527 16.3947H37.0001V14.3947H13.0527V16.3947ZM13.0527 25.4474C11.672 25.4474 10.5527 26.5667 10.5527 27.9474H12.5527C12.5527 27.6712 12.7766 27.4474 13.0527 27.4474V25.4474ZM37.0001 25.4474H13.0527V27.4474H37.0001V25.4474ZM39.5001 27.9474C39.5001 26.5667 38.3808 25.4474 37.0001 25.4474V27.4474C37.2762 27.4474 37.5001 27.6712 37.5001 27.9474H39.5001ZM37.0001 30.4474C38.3808 30.4474 39.5001 29.3281 39.5001 27.9474H37.5001C37.5001 28.2235 37.2762 28.4474 37.0001 28.4474V30.4474ZM13.0527 30.4474H37.0001V28.4474H13.0527V30.4474ZM10.5527 27.9474C10.5527 29.3281 11.672 30.4474 13.0527 30.4474V28.4474C12.7766 28.4474 12.5527 28.2235 12.5527 27.9474H10.5527ZM3.84211 19.7368C5.41176 19.7368 6.68421 18.4644 6.68421 16.8947H4.68421C4.68421 17.3598 4.30719 17.7368 3.84211 17.7368V19.7368ZM1 16.8947C1 18.4644 2.27245 19.7368 3.84211 19.7368V17.7368C3.37702 17.7368 3 17.3598 3 16.8947H1ZM3.84211 14.0526C2.27245 14.0526 1 15.3251 1 16.8947H3C3 16.4296 3.37702 16.0526 3.84211 16.0526V14.0526ZM6.68421 16.8947C6.68421 15.3251 5.41176 14.0526 3.84211 14.0526V16.0526C4.30719 16.0526 4.68421 16.4296 4.68421 16.8947H6.68421ZM4.68421 27.9474C4.68421 28.4125 4.30719 28.7895 3.84211 28.7895V30.7895C5.41176 30.7895 6.68421 29.517 6.68421 27.9474H4.68421ZM3.84211 27.1053C4.30719 27.1053 4.68421 27.4823 4.68421 27.9474H6.68421C6.68421 26.3777 5.41176 25.1053 3.84211 25.1053V27.1053ZM3 27.9474C3 27.4823 3.37702 27.1053 3.84211 27.1053V25.1053C2.27245 25.1053 1 26.3777 1 27.9474H3ZM3.84211 28.7895C3.37702 28.7895 3 28.4125 3 27.9474H1C1 29.517 2.27245 30.7895 3.84211 30.7895V28.7895Z" fill="#EB5757" mask="url(#path-2-inside-1)"/>
</svg>
