<svg width="40" height="40" viewBox="0 0 40 40" fill="none" xmlns="http://www.w3.org/2000/svg">
<path fill-rule="evenodd" clip-rule="evenodd" d="M20.0489 1C19.6511 1 19.2695 1.15804 18.9882 1.43934C18.7069 1.72064 18.5489 2.10218 18.5489 2.5V20.0482C18.5489 20.8767 19.2205 21.5482 20.0489 21.5482H37.5971C38.4256 21.5482 39.0971 20.8767 39.0971 20.0482C39.0971 17.5468 38.6044 15.0698 37.6472 12.7588C36.6899 10.4478 35.2868 8.34789 33.518 6.5791C31.7492 4.81031 29.6494 3.40723 27.3383 2.44996C25.0273 1.4927 22.5503 1 20.0489 1ZM21.5489 18.5482V4.07025C23.142 4.21982 24.7067 4.60709 26.1903 5.2216C28.1374 6.0281 29.9065 7.2102 31.3967 8.70042C32.8869 10.1906 34.069 11.9598 34.8755 13.9068C35.49 15.3904 35.8773 16.9551 36.0269 18.5482H21.5489ZM13.6296 5.33132C14.3889 4.99998 14.7358 4.11586 14.4045 3.35658C14.0731 2.5973 13.189 2.25038 12.4297 2.58172C9.57797 3.82617 7.07448 5.75026 5.13813 8.18577C3.20178 10.6213 1.89153 13.494 1.32192 16.5529C0.752305 19.6118 0.940682 22.7636 1.87058 25.7329C2.80047 28.7021 4.44357 31.3984 6.65623 33.5859C8.86888 35.7734 11.5837 37.3856 14.5634 38.2816C17.5431 39.1775 20.6968 39.3299 23.749 38.7253C26.8012 38.1208 29.6588 36.7779 32.072 34.8138C34.4853 32.8498 36.3806 30.3245 37.5924 27.4587C37.9151 26.6957 37.5581 25.8156 36.7951 25.493C36.0321 25.1703 35.152 25.5273 34.8293 26.2903C33.8084 28.7048 32.2115 30.8323 30.1783 32.487C28.1452 34.1417 25.7376 35.2732 23.1662 35.7825C20.5947 36.2918 17.9376 36.1634 15.4272 35.4086C12.9168 34.6538 10.6296 33.2955 8.7654 31.4525C6.90123 29.6095 5.51691 27.3379 4.73347 24.8363C3.95002 22.3347 3.79132 19.6792 4.27122 17.1021C4.75112 14.525 5.85502 12.1047 7.4864 10.0528C9.11778 8.00083 11.227 6.37978 13.6296 5.33132Z" fill="#EB5757"/>
</svg>
